<svg xmlns="http://www.w3.org/2000/svg" width="27.82" height="27.82" viewBox="0 0 27.82 27.82">
  <g id="Group_93" data-name="Group 93" transform="translate(0.001 0.003)">
    <path id="Path_162" data-name="Path 162" d="M27.649,26.149l-5.058-7.963C22.783,10.049,18.655,3.18,14.546.2a1.086,1.086,0,0,0-1.275,0C9.3,3.086,5.035,9.858,5.227,18.183L.168,26.149a1.086,1.086,0,0,0,.917,1.669H26.732a1.086,1.086,0,0,0,.917-1.669Zm-24.586-.5,2.485-3.913a31.674,31.674,0,0,0,.881,3.913Zm17.344-7.133a27.5,27.5,0,0,1-1.29,7.133H8.7A27.51,27.51,0,0,1,7.409,18.47c0-.008,0-.016,0-.023A20.355,20.355,0,0,1,13.91,2.5,20.354,20.354,0,0,1,20.407,18.511Zm.981,7.133a31.453,31.453,0,0,0,.881-3.913l2.485,3.913Z" fill="#fff"/>
    <path id="Path_163" data-name="Path 163" d="M189.8,246a3.8,3.8,0,1,0,3.8,3.8A3.808,3.808,0,0,0,189.8,246Zm0,5.434a1.63,1.63,0,1,1,1.63-1.63A1.632,1.632,0,0,1,189.8,251.434Z" transform="translate(-175.895 -232.636)" fill="#f2055c"/>
  </g>
</svg>
