<svg xmlns="http://www.w3.org/2000/svg" width="26.539" height="26.539" viewBox="0 0 26.539 26.539">
  <g id="Group_11" data-name="Group 11" transform="translate(-288 -87.999)">
    <path id="Path_31" data-name="Path 31" d="M426.859,164.452a1.681,1.681,0,0,1,2.864,1.186,1.09,1.09,0,0,0,2.179,0,3.863,3.863,0,0,0-2.767-3.7v-.729a1.09,1.09,0,1,0-2.179,0v.727a3.725,3.725,0,0,0-.4,7.03l2.148.89a1.541,1.541,0,0,1,.572,2.458,1.681,1.681,0,0,1-2.907-1.142,1.09,1.09,0,1,0-2.179,0,3.857,3.857,0,0,0,2.767,3.7v.729a1.09,1.09,0,0,0,2.179,0v-.731a3.824,3.824,0,0,0,1.624-.955,3.722,3.722,0,0,0-1.222-6.071l-2.148-.89a1.54,1.54,0,0,1-.529-2.5Zm0,0" transform="translate(-126.776 -67.137)" fill="#f2055c"/>
    <path id="Path_32" data-name="Path 32" d="M310.649,91.888a13.266,13.266,0,1,0,0,18.761,13.259,13.259,0,0,0,0-18.761Zm-9.381,20.467a11.087,11.087,0,1,1,11.087-11.087,11.1,11.1,0,0,1-11.087,11.087Zm0,0" transform="translate(0 0)" fill="#fff"/>
  </g>
</svg>
