<svg xmlns="http://www.w3.org/2000/svg" width="27.82" height="20.688" viewBox="0 0 27.82 20.688">
  <g id="Group_95" data-name="Group 95" transform="translate(25 28)">
    <path id="Path_164" data-name="Path 164" d="M-20.683,28.484H-6.032a1.265,1.265,0,0,0,1.265-1.265,1.265,1.265,0,0,0-1.265-1.265H-20.683l1.635-1.635a1.264,1.264,0,0,0,0-1.788,1.264,1.264,0,0,0-1.788,0l-3.793,3.793c-.03.03-.057.06-.084.092l-.018.024c-.019.024-.038.049-.056.075l-.014.023c-.018.027-.035.054-.05.083l-.009.017c-.016.031-.031.062-.044.095l0,.012c-.014.034-.026.069-.037.1,0,0,0,.009,0,.014-.01.035-.019.07-.027.106,0,.011,0,.021,0,.033-.005.03-.01.06-.013.09a1.19,1.19,0,0,0-.007.126,1.2,1.2,0,0,0,.007.126c0,.031.008.061.013.091,0,.011,0,.021,0,.032.007.036.017.072.027.107l0,.012c.011.036.024.071.037.1l0,.011c.013.033.029.064.045.1l.008.017c.015.029.032.056.05.084l.014.023c.017.026.037.051.056.075l.018.024c.026.032.054.062.083.092l3.794,3.793a1.26,1.26,0,0,0,.894.371,1.26,1.26,0,0,0,.894-.371,1.264,1.264,0,0,0,0-1.788Zm0,0" transform="translate(0 -44.875)" fill="#f2055c"/>
    <path id="Path_165" data-name="Path 165" d="M66.081-28a10.337,10.337,0,0,0-8.591,4.58,1.265,1.265,0,0,0,.344,1.755,1.265,1.265,0,0,0,1.755-.344,7.811,7.811,0,0,1,6.492-3.462A7.824,7.824,0,0,1,73.9-17.656a7.824,7.824,0,0,1-7.815,7.815A7.814,7.814,0,0,1,59.6-13.287a1.264,1.264,0,0,0-1.756-.34,1.264,1.264,0,0,0-.34,1.756,10.34,10.34,0,0,0,8.577,4.56A10.356,10.356,0,0,0,76.425-17.656,10.356,10.356,0,0,0,66.081-28Zm0,0" transform="translate(-73.605)" fill="#fff"/>
  </g>
</svg>
