<svg xmlns="http://www.w3.org/2000/svg" width="23.858" height="17.518" viewBox="0 0 23.858 17.518">
  <g id="Group_901" data-name="Group 901" transform="translate(-235 -754.817)">
    <g id="Group_900" data-name="Group 900">
      <g id="Group_32" data-name="Group 32" transform="translate(235 754.817)">
        <path id="Path_49" data-name="Path 49" d="M310.861,142.92l1-1.46-1-1.46H288v17.517h22.861l1-1.46-1-1.46,1-1.46-1-1.46,1-1.46-1-1.46,1-1.46-1-1.46,1-1.46Zm-17.454,5.14h.55a2.609,2.609,0,0,1,.424,5.184v1.435h-1.4v-1.435a2.613,2.613,0,0,1-2.186-2.575h1.4a1.213,1.213,0,0,0,1.211,1.212h.55a1.212,1.212,0,1,0,0-2.423h-.55a2.609,2.609,0,0,1-.424-5.184v-1.435h1.4v1.435a2.613,2.613,0,0,1,2.186,2.575h-1.4a1.213,1.213,0,0,0-1.212-1.212h-.55a1.212,1.212,0,0,0,0,2.423Zm14.179,4.2h-9.523v-1.4h9.523Zm0-2.8h-9.523v-1.4h9.523Zm0-2.8h-9.523v-1.4h9.523Zm0,0" transform="translate(-288 -140)" fill="#868d9a"/>
      </g>
    </g>
  </g>
</svg>
